<svg width="512" height="512" viewBox="0 0 512 512" fill="none" xmlns="http://www.w3.org/2000/svg">
<g clip-path="url(#clip0_65_138)">
<mask id="mask0_65_138" style="mask-type:luminance" maskUnits="userSpaceOnUse" x="-12" y="-3" width="512" height="228">
<path d="M-12 -3H500V183L-12 225V-3Z" fill="white"/>
</mask>
<g mask="url(#mask0_65_138)">
<path d="M69.2861 391.989C69.3461 391.989 69.3992 392.001 69.4443 392.022C69.4896 392.045 69.5247 392.076 69.5498 392.116C69.575 392.156 69.5879 392.202 69.5879 392.255V392.728H69.4346V392.269C69.4346 392.241 69.4283 392.216 69.416 392.194C69.4039 392.173 69.3865 392.156 69.3643 392.144C69.3422 392.131 69.3159 392.125 69.2861 392.125C69.2568 392.125 69.2311 392.131 69.209 392.144C69.1867 392.156 69.1695 392.173 69.1572 392.194C69.1452 392.216 69.1387 392.241 69.1387 392.269V392.728H68.9854V392.255C68.9854 392.202 68.9976 392.156 69.0225 392.116C69.0475 392.076 69.0828 392.045 69.1279 392.022C69.173 392 69.2259 391.989 69.2861 391.989ZM306.888 34.9092H396.694V269.613C396.694 296.395 390.28 320.199 377.204 340.729C364.315 361.146 346.284 376.988 323.363 388.269L323.349 388.276L323.333 388.283C300.344 399.477 273.821 404.943 243.979 404.943C214.028 404.943 187.447 399.479 164.454 388.283L164.438 388.276L164.424 388.269C141.493 376.983 123.456 361.131 110.565 340.701C97.614 320.174 91.2627 296.38 91.2627 269.613V34.9092H181.069V263.307C181.069 275.376 183.683 285.799 188.709 294.792L189.199 295.634C194.325 304.269 201.384 311.081 210.521 316.136C219.837 321.289 230.906 324 243.979 324C257.18 324 268.23 321.283 277.404 316.153L277.436 316.136C286.856 310.925 294.001 303.853 299.046 294.851L299.062 294.821L299.078 294.792C304.219 285.796 306.888 275.375 306.888 263.307V34.9092Z" fill="url(#paint0_linear_65_138)"/>
</g>
<mask id="mask1_65_138" style="mask-type:luminance" maskUnits="userSpaceOnUse" x="12" y="202" width="512" height="310">
<path d="M12 238L524 202V512H12V238Z" fill="white"/>
</mask>
<g mask="url(#mask1_65_138)">
<path d="M330.888 37.9092H420.694V272.613C420.694 299.382 414.285 323.176 401.221 343.7L401.222 343.701C388.331 364.132 370.295 379.983 347.363 391.269L347.349 391.276L347.333 391.284C324.344 402.478 297.821 407.943 267.979 407.943C238.028 407.943 211.447 402.479 188.454 391.284L188.439 391.276L188.424 391.269C165.493 379.983 147.456 364.131 134.566 343.701C121.614 323.174 115.263 299.38 115.263 272.613V37.9092H205.069V266.307C205.069 278.376 207.683 288.799 212.709 297.792L213.198 298.634C218.324 307.269 225.384 314.081 234.522 319.136C243.837 324.289 254.906 327 267.979 327C281.18 327 292.23 324.284 301.404 319.154L301.42 319.145L301.436 319.136C310.855 313.925 318 306.852 323.045 297.851L323.078 297.792C328.219 288.796 330.888 278.375 330.888 266.307V37.9092Z" fill="url(#paint1_linear_65_138)"/>
</g>
<path d="M-30 234L542 186V214L-30 262V234Z" fill="#F0A0FF"/>
</g>
<defs>
<linearGradient id="paint0_linear_65_138" x1="68.5" y1="-73" x2="68.5" y2="508" gradientUnits="userSpaceOnUse">
<stop stop-color="#D593FF"/>
<stop offset="0.5" stop-color="#00E3FD"/>
<stop offset="1" stop-color="#D593FF"/>
</linearGradient>
<linearGradient id="paint1_linear_65_138" x1="92.5" y1="-70" x2="92.5" y2="511" gradientUnits="userSpaceOnUse">
<stop stop-color="#D593FF"/>
<stop offset="0.5" stop-color="#00E3FD"/>
<stop offset="1" stop-color="#D593FF"/>
</linearGradient>
<clipPath id="clip0_65_138">
<rect width="512" height="512" fill="white"/>
</clipPath>
</defs>
</svg>
